<svg xmlns="http://www.w3.org/2000/svg" width="182.943" height="233.056" viewBox="0 0 182.943 233.056">
  <g id="_4" data-name="4" transform="translate(-87.165 -377.385)" opacity="0.05">
    <path id="Path_7248" data-name="Path 7248" d="M238.048,450.086a66.359,66.359,0,0,0,31.811-21.208l.051.006a90.164,90.164,0,0,0-12.008-51.5c-7.221,39.5-43.064,53.219-75.931,68.161-33.25,15.123-75.236,17.015-90.494,56.26-7.973,20.509-4.449,43.783,6.937,62.187,6.282-46.553,53.437-61.541,88.854-80.345,4.6-2.439,8.908-5.341,13.042-7.983l.082.127c-10.434,8.113-21.683,14.35-32.781,21.389-20.2,12.8-38.164,21.12-52.008,41.666-14.275,21.186-19.324,46.334-18.224,71.594a14.959,14.959,0,0,0,6.822-4.994l-.086-.054a143.33,143.33,0,0,1,4.039-32.994l.076-.144c23.338,12.294,53.356,16.091,78.739,7.046a92.26,92.26,0,0,0,18.516-9.551,51.437,51.437,0,0,1-20.449-30.3c6.014,11.892,17.671,20.192,30.648,23.217a99.109,99.109,0,0,0,34.484-44.426h-.759c-14.748-.438-26.468-7.921-32.568-21.2,9.806,9.675,25.753,12.66,40.294,7.281a115.906,115.906,0,0,0,12.76-60.338C261.084,450.161,248.961,452.407,238.048,450.086Z" fill="#6cb715"/>
  </g>
</svg>
