<svg xmlns="http://www.w3.org/2000/svg" width="255.784" height="187.17" viewBox="0 0 255.784 187.17">
  <g id="Ñëîé_9" data-name="Ñëîé 9" opacity="0.05">
    <path id="Path_7242" data-name="Path 7242" d="M757.141,876.355A12.216,12.216,0,0,1,752.123,884a47.278,47.278,0,0,0,6.365-.736c6.658-1.426,14.248-4.215,19.35-8.684l.121.133a15.757,15.757,0,0,1-4.438,7.313,44.842,44.842,0,0,0,6.75-1.2,59.669,59.669,0,0,0,20.4-9.775,21.129,21.129,0,0,1-3.076,6.232c9.662-1.56,19.3-5.619,25.009-13.591a20.4,20.4,0,0,1-5.742,7.341l.008.256a31.3,31.3,0,0,0,7.246-1.191c8.4-2.5,15.365-9.022,19.748-16.44a59.536,59.536,0,0,1-3.2,9.008,30,30,0,0,0,5.742-2.836c6.522-4.361,11.77-11.8,14.8-18.846a9.8,9.8,0,0,1-.936,7.633,41.941,41.941,0,0,0,5.709-4.619c6.772-6.724,12.225-17.154,15.016-25.621a16.6,16.6,0,0,1-.7,8.268,30.38,30.38,0,0,0,8.761-24.975,23.833,23.833,0,0,1,3.58,13.9c2.711-4.678,3.868-9.151,5.28-14.465a71.674,71.674,0,0,0,.914-32.326c-1.774-9.135-5.131-18.307-11.285-25.331l.187-.166c14.994-3.726,31.084-6.123,46.471-3.64a82.017,82.017,0,0,1,12.8,3.187,42.827,42.827,0,0,0-1.676-8.64l.01-.065c-24.459-3.73-52.852,1.6-75.877,9.959-22.512,8.168-44.186,21.8-62.942,36.412-7.951,6.2-15.6,11.985-22.254,19.176,3.6-5.408,7.754-9.955,12.344-15.121,10.736-12.088,23.223-22.32,36.273-31.709,13.612-9.791,28.137-19.062,44.2-24.2-12.1-16.241-33.67-25.381-53.178-28.395a97.771,97.771,0,0,0-18.092-1.187,25.358,25.358,0,0,1,8.787,6.554c-3.476.057-6.761.266-10.177.6a100.571,100.571,0,0,0-32.705,8.7l.1.215a20.719,20.719,0,0,1,12.186,3.881,45.47,45.47,0,0,0-7.2,1.691c-8.279,2.635-16.6,7.866-22.843,13.2l.248.285a28.823,28.823,0,0,1,13.279,0l.029.086a65.314,65.314,0,0,0-8.291,3.218c-9.023,4.309-17.2,11.09-23.933,18.2l.146.143a26.629,26.629,0,0,1,11.842-1.156c-1.609,1.115-3.365,2.478-5.029,3.76A86.818,86.818,0,0,0,726.5,773.652l.559.436a24.223,24.223,0,0,1,12.769-1.318,35.491,35.491,0,0,0-6.369,2.894c-7.264,4.344-13.479,11.906-17.453,19.09l.1.056a24.076,24.076,0,0,1,9.194-2.835c-5.391,6.652-10.783,14.675-14.1,22.367A24.66,24.66,0,0,1,719.57,813l.242.32a45.517,45.517,0,0,0-14.39,19.026,23.127,23.127,0,0,1,10.644-3.416c-4.816,5.916-9.691,12.492-12.648,19.6a43.611,43.611,0,0,0-2.311,7.141l.274.064a15.245,15.245,0,0,1,8.345-3.425l.026.394c-6.592,7.076-6.7,16.821-13.061,23.643a23.06,23.06,0,0,1-5.461,3.785l.118.215c2.537.068,5.248.068,7.877.256,9.865.7,17.158,1.234,26.2-3.119l.129.265c-.754,2.68-3.459,6.151-6.622,8.246l.127.2c1.733-.376,3.389-.808,5.09-1.324,5.908-1.789,11.9-4.429,15.713-8.605l.2.187a15.125,15.125,0,0,1-5.736,8.721l.107.156A121.752,121.752,0,0,0,757.141,876.355Z" transform="translate(-691.23 -699.015)" fill="#6cb715"/>
  </g>
</svg>
